<svg width="14" height="18" viewBox="0 0 14 18" fill="none" xmlns="http://www.w3.org/2000/svg">
<path d="M7.00042 0.606934C10.8468 0.606934 13.9647 3.72479 13.9647 7.57122C13.9647 10.5141 11.8968 13.7212 7.8147 17.2269C7.58772 17.4219 7.29832 17.529 6.99908 17.5288C6.69985 17.5285 6.41063 17.4209 6.18399 17.2255L5.91399 16.9912C2.01256 13.5769 0.0361328 10.4484 0.0361328 7.57122C0.0361328 3.72479 3.15399 0.606934 7.00042 0.606934ZM7.00042 1.67836C5.43754 1.67836 3.93866 2.29921 2.83354 3.40434C1.72841 4.50947 1.10756 6.00834 1.10756 7.57122C1.10756 10.0726 2.92756 12.9548 6.61756 16.1834L6.88399 16.4141C6.91638 16.4419 6.95769 16.4573 7.00042 16.4573C7.04314 16.4573 7.08445 16.4419 7.11685 16.4141C10.9854 13.0912 12.8933 10.1319 12.8933 7.57122C12.8933 6.79736 12.7409 6.03108 12.4447 5.31612C12.1486 4.60117 11.7145 3.95154 11.1673 3.40434C10.6201 2.85714 9.97047 2.42307 9.25552 2.12693C8.54056 1.83079 7.77428 1.67836 7.00042 1.67836ZM7.00042 4.89265C7.71082 4.89265 8.39213 5.17485 8.89445 5.67718C9.39678 6.17951 9.67899 6.86082 9.67899 7.57122C9.67899 8.28162 9.39678 8.96293 8.89445 9.46526C8.39213 9.96759 7.71082 10.2498 7.00042 10.2498C6.29002 10.2498 5.60871 9.96759 5.10638 9.46526C4.60405 8.96293 4.32185 8.28162 4.32185 7.57122C4.32185 6.86082 4.60405 6.17951 5.10638 5.67718C5.60871 5.17485 6.29002 4.89265 7.00042 4.89265ZM7.00042 5.96408C6.57418 5.96408 6.16539 6.1334 5.864 6.4348C5.5626 6.7362 5.39328 7.14498 5.39328 7.57122C5.39328 7.99746 5.5626 8.40624 5.864 8.70764C6.16539 9.00904 6.57418 9.17836 7.00042 9.17836C7.42666 9.17836 7.83544 9.00904 8.13684 8.70764C8.43824 8.40624 8.60756 7.99746 8.60756 7.57122C8.60756 7.14498 8.43824 6.7362 8.13684 6.4348C7.83544 6.1334 7.42666 5.96408 7.00042 5.96408Z" fill="white"/>
</svg>
