<svg width="20" height="20" viewBox="0 0 20 20" fill="none" xmlns="http://www.w3.org/2000/svg">
<path d="M8.45557 11.4666C9.61529 12.6431 11.0185 13.5514 12.5667 14.1278L14.6611 12.4611C14.7232 12.4183 14.7968 12.3954 14.8722 12.3954C14.9476 12.3954 15.0213 12.4183 15.0834 12.4611L18.9722 14.9666C19.1199 15.0554 19.2449 15.1773 19.3373 15.3226C19.4297 15.468 19.4871 15.6329 19.5049 15.8042C19.5227 15.9756 19.5004 16.1487 19.4398 16.3099C19.3791 16.4712 19.2818 16.6161 19.1556 16.7333L17.3334 18.5333C17.0724 18.7912 16.7517 18.9804 16.3998 19.0841C16.0479 19.1878 15.6758 19.2028 15.3167 19.1278C11.7346 18.3879 8.43287 16.6553 5.78891 14.1278C3.20362 11.5751 1.41461 8.32712 0.638906 4.77776C0.562276 4.42422 0.57827 4.05689 0.685337 3.71135C0.792405 3.36582 0.986915 3.0538 1.25002 2.80553L3.13891 0.983311C3.25579 0.863192 3.39834 0.771074 3.55588 0.713854C3.71341 0.656633 3.88185 0.635793 4.04858 0.652893C4.21531 0.669994 4.37601 0.724592 4.51865 0.8126C4.66129 0.900607 4.78217 1.01974 4.87224 1.16109L7.46113 4.99998C7.50578 5.06026 7.52989 5.13329 7.52989 5.20831C7.52989 5.28333 7.50578 5.35636 7.46113 5.41664L5.75557 7.46664C6.34756 8.98383 7.26987 10.3502 8.45557 11.4666Z" fill="#333333" fill-opacity="0.7"/>
</svg>
